<svg width="512" height="512" viewBox="0 0 512 512" xmlns="http://www.w3.org/2000/svg"><mask id="satori_om-id"><rect x="0" y="0" width="512" height="512" fill="#fff"/></mask><rect x="0" y="0" width="512" height="512" fill="#120918"/><mask id="satori_om-id-0"><rect x="110" y="125" width="293" height="263" fill="#fff"/></mask><mask id="satori_om-id-0-0"><rect x="110" y="125" width="98" height="263" fill="#fff"/></mask><g  ><path fill="#8E2CD7" d="M193.3 341L166.5 341L166.5 294.4L116.6 294.4L116.6 270.8L155.5 165L193.3 165L193.3 269.5L211.2 269.5L211.2 294.4L193.3 294.4L193.3 341ZM157.3 227.3L143.8 269.5L166.5 269.5L170.3 227.3L173.5 190.1L167.9 190.1L157.3 227.3Z "/></g><mask id="satori_om-id-0-1"><rect x="208" y="125" width="97" height="263" fill="#fff"/></mask><g  ><path fill="#F77F00" d="M259.9 343.0L259.9 343.0Q240.1 343.0 229.2 332.5Q218.3 322.1 217.9 302.7L217.9 302.7Q217.6 286.7 217.5 269.8Q217.3 252.9 217.5 236.0Q217.6 219.1 217.9 203.1L217.9 203.1Q218.3 183.6 229.2 173.3Q240.1 163.0 259.9 163.0L259.9 163.0Q279.6 163.0 290.4 173.3Q301.3 183.6 301.8 203.1L301.8 203.1Q302.3 215.2 302.4 227.8Q302.6 240.3 302.6 253.1Q302.6 265.8 302.4 278.2Q302.3 290.7 301.8 302.7L301.8 302.7Q301.3 322.1 290.4 332.5Q279.6 343.0 259.9 343.0ZM259.9 319.8L259.9 319.8Q272.9 319.8 273.4 307.9L273.4 307.9Q274.1 289.5 274.4 270.7Q274.7 251.8 274.4 233.4Q274.1 214.9 273.4 197.9L273.4 197.9Q273.1 186.2 259.9 186.2L259.9 186.2Q246.6 186.2 246.3 197.9L246.3 197.9Q245.9 211.6 245.7 225.7Q245.4 239.7 245.4 253.7Q245.4 267.7 245.7 281.4Q245.9 295.0 246.3 307.9L246.3 307.9Q246.6 319.8 259.9 319.8Z "/></g><line x1="208" y1="276.056" x2="304.17" y2="276.056" stroke="#8E2CD7" stroke-width="22" stroke-linecap="square" transform=""/><mask id="satori_om-id-0-2"><rect x="305" y="125" width="98" height="263" fill="#fff"/></mask><g  ><path fill="#8E2CD7" d="M388.3 341L361.5 341L361.5 294.4L311.6 294.4L311.6 270.8L350.5 165L388.3 165L388.3 269.5L406.2 269.5L406.2 294.4L388.3 294.4L388.3 341ZM352.3 227.3L338.8 269.5L361.5 269.5L365.3 227.3L368.5 190.1L362.9 190.1L352.3 227.3Z "/></g></svg>