<svg width="800" height="248" viewBox="0 0 800 248" xmlns="http://www.w3.org/2000/svg"><mask id="satori_om-id"><rect x="0" y="0" width="800" height="248" fill="#fff"/></mask><rect x="0" y="0" width="800" height="248" fill="#0F080F"/><mask id="satori_om-id-0"><rect x="320" y="40" width="161" height="103" fill="#fff"/></mask><g  ><path fill="#EDE8E0" d="M362.4 150L348.8 150L348.8 126.3L323.4 126.3L323.4 114.3L343.2 60.4L362.4 60.4L362.4 113.6L371.5 113.6L371.5 126.3L362.4 126.3L362.4 150ZM344.1 92.1L337.2 113.6L348.8 113.6L350.7 92.1L352.3 73.2L349.5 73.2L344.1 92.1ZM400.1 151.0L400.1 151.0Q390.1 151.0 384.5 145.7Q379.0 140.4 378.7 130.5L378.7 130.5Q378.6 122.3 378.5 113.7Q378.5 105.1 378.5 96.5Q378.6 88.0 378.7 79.8L378.7 79.8Q379.0 69.9 384.5 64.6Q390.1 59.4 400.1 59.4L400.1 59.4Q410.2 59.4 415.7 64.6Q421.2 69.9 421.5 79.8L421.5 79.8Q421.7 85.9 421.8 92.3Q421.9 98.8 421.9 105.2Q421.9 111.7 421.8 118.1Q421.7 124.4 421.5 130.5L421.5 130.5Q421.2 140.4 415.7 145.7Q410.2 151.0 400.1 151.0ZM400.1 139.2L400.1 139.2Q406.7 139.2 407.0 133.1L407.0 133.1Q407.4 123.8 407.5 114.2Q407.6 104.6 407.5 95.2Q407.4 85.8 407.0 77.1L407.0 77.1Q406.9 71.2 400.1 71.2L400.1 71.2Q393.4 71.2 393.2 77.1L393.2 77.1Q393.0 84.1 392.9 91.3Q392.7 98.4 392.7 105.6Q392.7 112.7 392.9 119.6Q393.0 126.6 393.2 133.1L393.2 133.1Q393.4 139.2 400.1 139.2ZM469.1 150L455.5 150L455.5 126.3L430.1 126.3L430.1 114.3L449.9 60.4L469.1 60.4L469.1 113.6L478.3 113.6L478.3 126.3L469.1 126.3L469.1 150ZM450.8 92.1L443.9 113.6L455.5 113.6L457.4 92.1L459.0 73.2L456.2 73.2L450.8 92.1Z "/></g><mask id="satori_om-id-1"><rect x="284" y="155" width="232" height="53" fill="#fff"/></mask><mask id="satori_om-id-1-0"><rect x="284" y="155" width="131" height="53" fill="#fff"/></mask><g  ><path fill="#766878" d="M292.3 198L288.9 198L288.9 165.8L284.2 165.8L284.2 162.8L296.9 162.8L296.9 165.8L292.3 165.8L292.3 198ZM318.0 198L307.4 198L307.4 162.8L318.0 162.8L318.0 165.8L310.7 165.8L310.7 178.7L317.5 178.7L317.5 181.8L310.7 181.8L310.7 195.0L318.0 195.0L318.0 198ZM335.2 198.3L335.2 198.3Q331.9 198.3 330.5 196.9Q329.1 195.5 329.0 192.2L329.0 192.2Q329.0 189.2 329.0 186.3Q328.9 183.3 328.9 180.4Q328.9 177.5 329.0 174.5Q329.0 171.6 329.0 168.6L329.0 168.6Q329.1 165.6 330.5 164.1Q331.9 162.5 335.1 162.5L335.1 162.5Q338.4 162.5 339.8 163.9Q341.3 165.4 341.4 168.7L341.4 168.7Q341.4 169.5 341.4 170.7Q341.4 171.9 341.4 173.1Q341.4 174.3 341.3 175.2L341.3 175.2L338.0 175.2Q338.0 174.1 338.0 172.9Q338.0 171.6 338.0 170.4Q338.0 169.2 338.0 168.1L338.0 168.1Q338.0 166.6 337.3 166.0Q336.6 165.4 335.1 165.4L335.1 165.4Q333.7 165.4 333.1 166.0Q332.5 166.6 332.4 168.1L332.4 168.1Q332.3 171.3 332.3 174.3Q332.3 177.4 332.3 180.4Q332.3 183.4 332.3 186.5Q332.3 189.6 332.4 192.7L332.4 192.7Q332.5 194.2 333.1 194.8Q333.7 195.5 335.2 195.5L335.2 195.5Q336.7 195.5 337.4 194.8Q338.1 194.2 338.1 192.7L338.1 192.7Q338.2 191.6 338.2 190.3Q338.2 189.0 338.2 187.7Q338.1 186.4 338.1 185.2L338.1 185.2L341.5 185.2Q341.6 187 341.6 188.7Q341.6 190.4 341.5 192.2L341.5 192.2Q341.4 195.5 340.0 196.9Q338.5 198.3 335.2 198.3ZM356.8 198L353.4 198L353.4 162.8L356.8 162.8L356.8 178.7L362.3 178.7L362.3 162.8L365.7 162.8L365.7 198L362.3 198L362.3 181.8L356.8 181.8L356.8 198ZM398.7 198L395.4 198L395.4 162.8L406.0 162.8L406.0 165.8L398.7 165.8L398.7 178.7L405.5 178.7L405.5 181.8L398.7 181.8L398.7 198Z "/></g><mask id="satori_om-id-1-1"><rect x="415" y="155" width="25" height="53" fill="#fff"/></mask><g  ><path fill="#766878" d="M423.3 198.3L423.3 198.3Q420.0 198.3 418.6 196.9Q417.1 195.5 417.1 192.2L417.1 192.2Q417.0 189.2 417.0 186.3Q417.0 183.3 417.0 180.4Q417.0 177.5 417.0 174.5Q417.0 171.6 417.1 168.6L417.1 168.6Q417.1 165.3 418.6 163.9Q420.0 162.5 423.3 162.5L423.3 162.5Q426.6 162.5 428.0 163.9Q429.5 165.3 429.5 168.6L429.5 168.6Q429.6 171.6 429.6 174.6Q429.7 177.5 429.7 180.4Q429.7 183.3 429.6 186.3Q429.6 189.2 429.5 192.2L429.5 192.2Q429.5 195.5 428.0 196.9Q426.6 198.3 423.3 198.3ZM423.3 195.5L423.3 195.5Q424.8 195.5 425.5 194.8Q426.1 194.2 426.2 192.8L426.2 192.8Q426.2 189.6 426.3 186.5Q426.3 183.4 426.3 180.3Q426.3 177.2 426.3 174.1Q426.2 171.1 426.2 168.0L426.2 168.0Q426.1 166.6 425.5 165.9Q424.8 165.3 423.3 165.3L423.3 165.3Q421.8 165.3 421.2 165.9Q420.5 166.6 420.5 168.0L420.5 168.0Q420.4 171.1 420.3 174.1Q420.3 177.2 420.3 180.3Q420.3 183.4 420.3 186.5Q420.4 189.6 420.5 192.8L420.5 192.8Q420.5 194.2 421.2 194.8Q421.8 195.5 423.3 195.5Z "/></g><line x1="415" y1="185.0112" x2="439.588" y2="185.0112" stroke="#766878" stroke-width="4.4" stroke-linecap="square" transform=""/><mask id="satori_om-id-1-2"><rect x="440" y="155" width="76" height="53" fill="#fff"/></mask><g  ><path fill="#766878" d="M448.1 198.3L448.1 198.3Q444.8 198.3 443.4 196.9Q442.0 195.5 442.0 192.2L442.0 192.2Q441.9 184.9 441.9 177.5Q441.9 170.1 442.0 162.8L442.0 162.8L445.3 162.8Q445.3 167.7 445.2 172.7Q445.2 177.8 445.2 182.8Q445.3 187.9 445.3 192.8L445.3 192.8Q445.3 194.2 446.0 194.8Q446.7 195.5 448.1 195.5L448.1 195.5Q449.6 195.5 450.2 194.8Q450.9 194.2 450.9 192.8L450.9 192.8Q451.0 187.9 451.0 182.8Q451.0 177.8 451.0 172.7Q451 167.7 450.9 162.8L450.9 162.8L454.3 162.8Q454.4 170.1 454.4 177.5Q454.4 184.9 454.3 192.2L454.3 192.2Q454.3 195.5 452.8 196.9Q451.4 198.3 448.1 198.3ZM469.8 198L466.5 198L466.5 162.8L472.1 162.8L474.1 174.0L477.0 195.0L478.1 195.0L477.4 175.6L477.2 162.8L480.5 162.8L480.5 198L474.8 198L472.5 185.5L470.1 165.8L469.0 165.8L469.6 184.8L469.8 198ZM499.1 198L493.0 198L493.0 162.8L499.1 162.8Q502.4 162.8 503.8 164.3Q505.3 165.7 505.3 169.0L505.3 169.0Q505.4 173.1 505.4 176.7Q505.5 180.4 505.4 184.0Q505.4 187.7 505.3 191.7L505.3 191.7Q505.3 195.1 503.8 196.5Q502.4 198 499.1 198L499.1 198ZM496.4 165.8L496.4 195.0L499.1 195.0Q500.5 195.0 501.2 194.3Q501.9 193.6 502.0 192.1L502.0 192.1Q502.0 189.1 502.0 186.2Q502.1 183.3 502.1 180.4Q502.1 177.5 502.0 174.5Q502.0 171.6 502.0 168.7L502.0 168.7Q501.9 167.2 501.2 166.5Q500.5 165.8 499.1 165.8L499.1 165.8L496.4 165.8Z "/></g></svg>