<svg width="512" height="512" viewBox="0 0 512 512" xmlns="http://www.w3.org/2000/svg"><mask id="satori_om-id"><rect x="0" y="0" width="512" height="512" fill="#fff"/></mask><rect x="0" y="0" width="512" height="512" fill="#120918"/><mask id="satori_om-id-0"><rect x="135" y="154" width="242" height="153" fill="#fff"/></mask><mask id="satori_om-id-0-0"><rect x="135" y="154" width="81" height="153" fill="#fff"/></mask><g  ><path fill="#F77F00" d="M203.1 300L181.3 300L181.3 261.8L140.4 261.8L140.4 242.6L172.3 156L203.1 156L203.1 241.5L217.8 241.5L217.8 261.8L203.1 261.8L203.1 300ZM173.7 206.9L162.6 241.5L181.3 241.5L184.3 206.9L186.9 176.5L182.3 176.5L173.7 206.9Z "/></g><mask id="satori_om-id-0-1"><rect x="216" y="154" width="80" height="153" fill="#fff"/></mask><g  ><path fill="#F77F00" d="M258.5 301.6L258.5 301.6Q242.3 301.6 233.4 293.1Q224.5 284.5 224.1 268.7L224.1 268.7Q223.8 255.5 223.7 241.7Q223.7 227.9 223.7 214.1Q223.8 200.3 224.1 187.1L224.1 187.1Q224.5 171.2 233.4 162.8Q242.3 154.4 258.5 154.4L258.5 154.4Q274.6 154.4 283.5 162.8Q292.3 171.2 292.8 187.1L292.8 187.1Q293.1 197.0 293.3 207.3Q293.4 217.7 293.4 228.0Q293.4 238.4 293.3 248.7Q293.1 258.9 292.8 268.7L292.8 268.7Q292.3 284.5 283.5 293.1Q274.6 301.6 258.5 301.6ZM258.5 282.6L258.5 282.6Q269.1 282.6 269.6 272.9L269.6 272.9Q270.1 257.9 270.3 242.4Q270.5 227.0 270.3 211.9Q270.1 196.9 269.6 182.9L269.6 182.9Q269.3 173.4 258.5 173.4L258.5 173.4Q247.6 173.4 247.3 182.9L247.3 182.9Q247.1 194.2 246.8 205.6Q246.6 217.1 246.6 228.6Q246.6 240.1 246.8 251.2Q247.1 262.4 247.3 272.9L247.3 272.9Q247.6 282.6 258.5 282.6Z "/></g><line x1="216" y1="256.233" x2="295.23" y2="256.233" stroke="#8E2CD7" stroke-width="18" stroke-linecap="square" transform=""/><mask id="satori_om-id-0-2"><rect x="296" y="154" width="81" height="153" fill="#fff"/></mask><g  ><path fill="#F77F00" d="M364.1 300L342.3 300L342.3 261.8L301.4 261.8L301.4 242.6L333.3 156L364.1 156L364.1 241.5L378.8 241.5L378.8 261.8L364.1 261.8L364.1 300ZM334.7 206.9L323.6 241.5L342.3 241.5L345.3 206.9L347.9 176.5L343.3 176.5L334.7 206.9Z "/></g><mask id="satori_om-id-1"><rect x="147" y="311" width="219" height="48" fill="#fff"/></mask><mask id="satori_om-id-1-0"><rect x="147" y="311" width="124" height="48" fill="#fff"/></mask><g  ><path fill="#6D6670" d="M154.5 350L151.4 350L151.4 320.8L147.2 320.8L147.2 318L158.7 318L158.7 320.8L154.5 320.8L154.5 350ZM178.6 350L169.0 350L169.0 318L178.6 318L178.6 320.8L172.0 320.8L172.0 332.5L178.2 332.5L178.2 335.2L172.0 335.2L172.0 347.2L178.6 347.2L178.6 350ZM195.0 350.3L195.0 350.3Q192.0 350.3 190.7 349Q189.4 347.7 189.4 344.7L189.4 344.7Q189.3 342.0 189.3 339.4Q189.3 336.7 189.3 334.0Q189.3 331.3 189.3 328.7Q189.3 326.0 189.4 323.3L189.4 323.3Q189.4 320.6 190.7 319.1Q192.0 317.7 194.9 317.7L194.9 317.7Q197.9 317.7 199.2 319.0Q200.5 320.3 200.6 323.3L200.6 323.3Q200.6 324.1 200.6 325.2Q200.6 326.3 200.6 327.4Q200.6 328.5 200.6 329.2L200.6 329.2L197.5 329.2Q197.5 328.2 197.5 327.1Q197.5 326.0 197.5 324.9Q197.5 323.8 197.5 322.8L197.5 322.8Q197.5 321.5 196.9 320.9Q196.3 320.3 194.9 320.3L194.9 320.3Q193.7 320.3 193.1 320.9Q192.5 321.5 192.5 322.8L192.5 322.8Q192.4 325.7 192.4 328.5Q192.3 331.2 192.3 334Q192.3 336.8 192.4 339.5Q192.4 342.3 192.5 345.2L192.5 345.2Q192.5 346.5 193.1 347.1Q193.7 347.7 195.0 347.7L195.0 347.7Q196.4 347.7 197.0 347.1Q197.7 346.5 197.7 345.2L197.7 345.2Q197.7 344.1 197.7 343.0Q197.7 341.8 197.7 340.6Q197.7 339.4 197.7 338.4L197.7 338.4L200.7 338.4Q200.8 340 200.8 341.6Q200.8 343.1 200.8 344.7L200.8 344.7Q200.7 347.7 199.3 349Q198.0 350.3 195.0 350.3ZM215.3 350L212.3 350L212.3 318L215.3 318L215.3 332.5L220.3 332.5L220.3 318L223.4 318L223.4 350L220.3 350L220.3 335.2L215.3 335.2L215.3 350ZM254.9 350L251.9 350L251.9 318L261.5 318L261.5 320.8L254.9 320.8L254.9 332.5L261.1 332.5L261.1 335.2L254.9 335.2L254.9 350Z "/></g><mask id="satori_om-id-1-1"><rect x="271" y="311" width="24" height="48" fill="#fff"/></mask><g  ><path fill="#6D6670" d="M278.6 350.3L278.6 350.3Q275.6 350.3 274.3 349.0Q272.9 347.7 272.9 344.7L272.9 344.7Q272.8 342.0 272.8 339.3Q272.8 336.7 272.8 334Q272.8 331.3 272.8 328.7Q272.8 326.0 272.9 323.3L272.9 323.3Q272.9 320.3 274.3 319.0Q275.6 317.7 278.6 317.7L278.6 317.7Q281.5 317.7 282.9 319.0Q284.2 320.3 284.2 323.3L284.2 323.3Q284.3 326.0 284.3 328.7Q284.3 331.4 284.3 334.0Q284.3 336.7 284.3 339.3Q284.3 342.0 284.2 344.7L284.2 344.7Q284.2 347.7 282.9 349.0Q281.5 350.3 278.6 350.3ZM278.6 347.7L278.6 347.7Q279.9 347.7 280.5 347.1Q281.1 346.6 281.1 345.2L281.1 345.2Q281.2 342.4 281.3 339.6Q281.3 336.7 281.3 333.9Q281.3 331.1 281.2 328.3Q281.2 325.5 281.1 322.8L281.1 322.8Q281.1 321.4 280.5 320.9Q279.9 320.3 278.6 320.3L278.6 320.3Q277.2 320.3 276.6 320.9Q276 321.4 276.0 322.8L276.0 322.8Q275.9 325.5 275.8 328.3Q275.8 331.1 275.8 333.9Q275.8 336.7 275.9 339.6Q275.9 342.4 276.0 345.2L276.0 345.2Q276 346.6 276.6 347.1Q277.2 347.7 278.6 347.7Z "/></g><line x1="271" y1="338.192" x2="294.08" y2="338.192" stroke="#6D6670" stroke-width="4" stroke-linecap="square" transform=""/><mask id="satori_om-id-1-2"><rect x="295" y="311" width="71" height="48" fill="#fff"/></mask><g  ><path fill="#6D6670" d="M302.4 350.3L302.4 350.3Q299.4 350.3 298.1 349.0Q296.8 347.7 296.8 344.7L296.8 344.7Q296.7 338.1 296.7 331.4Q296.7 324.7 296.8 318L296.8 318L299.8 318Q299.8 322.4 299.8 327.0Q299.7 331.6 299.8 336.2Q299.8 340.8 299.8 345.2L299.8 345.2Q299.8 346.5 300.5 347.1Q301.1 347.7 302.4 347.7L302.4 347.7Q303.7 347.7 304.3 347.1Q304.9 346.5 304.9 345.2L304.9 345.2Q305.0 340.8 305.0 336.2Q305.0 331.6 305.0 327.0Q305 322.4 304.9 318L304.9 318L308 318Q308.1 324.7 308.1 331.4Q308.1 338.1 308 344.7L308 344.7Q308.0 347.7 306.7 349.0Q305.4 350.3 302.4 350.3ZM322.8 350L319.8 350L319.8 318L324.9 318L326.7 328.1L329.4 347.2L330.3 347.2L329.8 329.6L329.6 318L332.6 318L332.6 350L327.3 350L325.3 338.6L323.1 320.7L322.1 320.7L322.6 338.0L322.8 350ZM350.1 350L344.7 350L344.7 318L350.2 318Q353.2 318 354.5 319.3Q355.8 320.6 355.9 323.7L355.9 323.7Q355.9 327.4 355.9 330.7Q356.0 334 355.9 337.3Q355.9 340.6 355.9 344.3L355.9 344.3Q355.8 347.3 354.5 348.7Q353.1 350 350.1 350L350.1 350ZM347.7 320.8L347.7 347.2L350.1 347.2Q351.5 347.2 352.1 346.6Q352.8 346.0 352.8 344.6L352.8 344.6Q352.8 341.9 352.8 339.3Q352.9 336.6 352.9 334.0Q352.9 331.3 352.8 328.7Q352.8 326.0 352.8 323.4L352.8 323.4Q352.8 322.0 352.1 321.4Q351.5 320.8 350.2 320.8L350.2 320.8L347.7 320.8Z "/></g></svg>