<svg width="512" height="512" viewBox="0 0 512 512" xmlns="http://www.w3.org/2000/svg"><defs><clipPath id="satori_bc-id"><rect x="0" y="0" width="512" height="512"/></clipPath></defs><mask id="satori_om-id"><rect x="16" y="16" width="480" height="480" fill="#fff"/><path width="512" height="512" fill="none" stroke="#000" stroke-width="32" d="M0,0 A0,0 0 0 1 0,0 h512 a0,0 0 0 1 0,0 v512 a0,0 0 0 1 0,0 h-512 a0,0 0 0 1 0,0 v-512 A0,0 0 0 1 0,0"/></mask><rect x="0" y="0" width="512" height="512" fill="#0F080F"/><path width="512" height="512" clip-path="url(#satori_bc-id)" fill="none" stroke="#9B35A8" stroke-width="32" d="M0,0 A0,0 0 0 1 0,0 h512 a0,0 0 0 1 0,0 v512 a0,0 0 0 1 0,0 h-512 a0,0 0 0 1 0,0 v-512 A0,0 0 0 1 0,0"/><mask id="satori_om-id-0"><rect x="135" y="149" width="242" height="215" fill="#fff"/></mask><mask id="satori_om-id-0-0"><rect x="135" y="149" width="81" height="215" fill="#fff"/></mask><g  ><path fill="#D49420" d="M203.1 326L181.3 326L181.3 287.8L140.4 287.8L140.4 268.6L172.3 182L203.1 182L203.1 267.5L217.8 267.5L217.8 287.8L203.1 287.8L203.1 326ZM173.7 232.9L162.6 267.5L181.3 267.5L184.3 232.9L186.9 202.5L182.3 202.5L173.7 232.9Z "/></g><mask id="satori_om-id-0-1"><rect x="216" y="149" width="80" height="215" fill="#fff"/></mask><g  ><path fill="#D49420" d="M258.5 327.6L258.5 327.6Q242.3 327.6 233.4 319.1Q224.5 310.5 224.1 294.7L224.1 294.7Q223.8 281.5 223.7 267.7Q223.7 253.9 223.7 240.1Q223.8 226.3 224.1 213.1L224.1 213.1Q224.5 197.2 233.4 188.8Q242.3 180.4 258.5 180.4L258.5 180.4Q274.6 180.4 283.5 188.8Q292.3 197.2 292.8 213.1L292.8 213.1Q293.1 223.0 293.3 233.3Q293.4 243.7 293.4 254.0Q293.4 264.4 293.3 274.7Q293.1 284.9 292.8 294.7L292.8 294.7Q292.3 310.5 283.5 319.1Q274.6 327.6 258.5 327.6ZM258.5 308.6L258.5 308.6Q269.1 308.6 269.6 298.9L269.6 298.9Q270.1 283.9 270.3 268.4Q270.5 253.0 270.3 237.9Q270.1 222.9 269.6 208.9L269.6 208.9Q269.3 199.4 258.5 199.4L258.5 199.4Q247.6 199.4 247.3 208.9L247.3 208.9Q247.1 220.2 246.8 231.6Q246.6 243.1 246.6 254.6Q246.6 266.1 246.8 277.2Q247.1 288.4 247.3 298.9L247.3 298.9Q247.6 308.6 258.5 308.6Z "/></g><line x1="216" y1="272.864" x2="295.23" y2="272.864" stroke="#9B35A8" stroke-width="18" stroke-linecap="square" transform=""/><mask id="satori_om-id-0-2"><rect x="296" y="149" width="81" height="215" fill="#fff"/></mask><g  ><path fill="#D49420" d="M364.1 326L342.3 326L342.3 287.8L301.4 287.8L301.4 268.6L333.3 182L364.1 182L364.1 267.5L378.8 267.5L378.8 287.8L364.1 287.8L364.1 326ZM334.7 232.9L323.6 267.5L342.3 267.5L345.3 232.9L347.9 202.5L343.3 202.5L334.7 232.9Z "/></g></svg>