<svg width="512" height="512" viewBox="0 0 512 512" xmlns="http://www.w3.org/2000/svg"><mask id="satori_om-id"><rect x="0" y="0" width="512" height="512" fill="#fff"/></mask><rect x="0" y="0" width="512" height="512" fill="#0F080F"/><mask id="satori_om-id-0"><rect x="157" y="5" width="199" height="503" fill="#fff"/></mask><g  ><path fill="#9B35A8" d="M256.1 421.8L256.1 421.8Q218.3 421.8 197.5 401.8Q176.7 381.9 175.9 344.9L175.9 344.9Q175.3 314.3 175.1 282.0Q174.8 249.8 175.1 217.6Q175.3 185.3 175.9 154.7L175.9 154.7Q176.7 117.5 197.5 97.9Q218.3 78.2 256.1 78.2L256.1 78.2Q293.7 78.2 314.4 97.9Q335.1 117.5 336.1 154.7L336.1 154.7Q337.0 177.8 337.3 201.8Q337.6 225.8 337.6 250.1Q337.6 274.4 337.3 298.2Q337.0 322.0 336.1 344.9L336.1 344.9Q335.1 381.9 314.4 401.8Q293.7 421.8 256.1 421.8ZM256.1 377.5L256.1 377.5Q280.9 377.5 281.9 354.8L281.9 354.8Q283.2 319.7 283.7 283.7Q284.3 247.7 283.7 212.5Q283.2 177.3 281.9 144.8L281.9 144.8Q281.3 122.5 256.1 122.5L256.1 122.5Q230.7 122.5 230.1 144.8L230.1 144.8Q229.4 171.0 228.9 197.8Q228.4 224.6 228.4 251.4Q228.4 278.1 228.9 304.2Q229.4 330.2 230.1 354.8L230.1 354.8Q230.7 377.5 256.1 377.5Z "/></g><line x1="157" y1="294.01599999999996" x2="355.87" y2="294.01599999999996" stroke="#D49420" stroke-width="42" stroke-linecap="square" transform=""/></svg>